<svg width="40" height="40" viewBox="0 0 40 40" fill="none" xmlns="http://www.w3.org/2000/svg">
<path d="M30.0001 6.66675C27.1501 6.66675 25.4167 7.21675 24.4167 7.68341C23.1334 7.05008 21.6667 6.66675 20.0001 6.66675C18.3334 6.66675 16.8667 7.05008 15.5834 7.68341C14.5834 7.21675 12.8501 6.66675 10.0001 6.66675C5.00008 6.66675 1.66675 20.0001 1.66675 23.3334C1.66675 24.7167 3.86675 25.9834 6.90008 26.5001C7.96675 30.2334 13.0001 33.0834 19.1667 33.3334V26.2001C18.1834 25.5834 16.6667 24.4667 16.6667 23.3334C16.6667 21.6667 20.0001 21.6667 20.0001 21.6667C20.0001 21.6667 23.3334 21.6667 23.3334 23.3334C23.3334 24.4667 21.8167 25.5834 20.8334 26.2001V33.3334C27.0001 33.0834 32.0334 30.2334 33.1001 26.5001C36.1334 25.9834 38.3334 24.7167 38.3334 23.3334C38.3334 20.0001 35.0001 6.66675 30.0001 6.66675ZM6.91675 23.1167C6.08341 22.9167 5.43341 22.6834 5.00008 22.5001C5.41675 17.8834 8.66675 10.6667 10.0834 10.0001C10.9834 10.0001 11.6667 10.1001 12.2834 10.1834C8.78341 14.0334 7.40008 20.0667 6.91675 23.1167ZM15.0001 20.0001C14.5581 20.0001 14.1341 19.8245 13.8216 19.5119C13.509 19.1994 13.3334 18.7754 13.3334 18.3334C13.3334 17.4334 14.0834 16.6667 15.0001 16.6667C15.4421 16.6667 15.866 16.8423 16.1786 17.1549C16.4912 17.4675 16.6667 17.8914 16.6667 18.3334C16.6667 19.2667 15.9167 20.0001 15.0001 20.0001ZM25.0001 20.0001C24.5581 20.0001 24.1341 19.8245 23.8216 19.5119C23.509 19.1994 23.3334 18.7754 23.3334 18.3334C23.3334 17.4334 24.0834 16.6667 25.0001 16.6667C25.4421 16.6667 25.866 16.8423 26.1786 17.1549C26.4912 17.4675 26.6667 17.8914 26.6667 18.3334C26.6667 19.2667 25.9167 20.0001 25.0001 20.0001ZM33.0834 23.1167C32.6001 20.0667 31.2167 14.0334 27.7167 10.1834C28.3334 10.1001 29.0167 10.0001 29.9167 10.0001C31.3334 10.6667 34.5834 17.8834 35.0001 22.5001C34.5834 22.6834 33.9334 22.9167 33.0834 23.1167Z" fill="black"/>
</svg>
